<?xml version="1.0" encoding="utf-8"?>
<!-- Generator: Adobe Illustrator 24.0.1, SVG Export Plug-In . SVG Version: 6.00 Build 0)  -->
<svg version="1.1" id="Layer_1" xmlns="http://www.w3.org/2000/svg" xmlns:xlink="http://www.w3.org/1999/xlink" x="0px" y="0px"
	 viewBox="0 0 126.9 126.9" style="enable-background:new 0 0 126.9 126.9;" xml:space="preserve">
<style type="text/css">
	.st0{fill:#9FCB47;}
	.st1{fill:#9FCA48;}
</style>
<g>
	<path class="st0" d="M63,109.8c-1.5,5.2,3.6,12.9-3.3,15.4c-6.9,2.5-12.4-3-17.3-7.8C25.2,100.8,19,68.9,29.2,49.9
		c8.5-15.7,27.9-24.8,45-21.1C94.7,33.2,110,48,111.4,66.3c1.5,19.2-2.6,37.1-17.3,51.1c-4.9,4.7-10.3,10.5-17.3,7.9
		s-1.9-10.2-3.4-15.4c-3.2-9.8,0.7-20-2.2-29.8c-0.2-6.5-0.4-13-0.5-19.4c-2.6-2.4-2.7-5.6-2.6-5.9c0,0.2,0.1,3.4-2.5,5.9
		c-0.2,6.5-0.4,13-0.5,19.5C62.3,89.9,66.1,100.1,63,109.8z"/>
	<path class="st1" d="M81.4,25.6c-7.8-4.6-18.2-1.4-28.7,0.1c-9.8,1.4-10.2-3.8-7.3-11.2C49.5,4.2,58,0.9,68,1.7
		c10.8,0.9,20.4,4.6,24,16.6C94.3,26.1,89.4,26.2,81.4,25.6z"/>
</g>
</svg>
