<?xml version="1.0" encoding="utf-8"?>
<!-- Generator: Adobe Illustrator 24.0.1, SVG Export Plug-In . SVG Version: 6.00 Build 0)  -->
<svg version="1.1" id="Layer_1" xmlns="http://www.w3.org/2000/svg" xmlns:xlink="http://www.w3.org/1999/xlink" x="0px" y="0px"
	 viewBox="0 0 126.9 126.9" style="enable-background:new 0 0 126.9 126.9;" xml:space="preserve">
<style type="text/css">
	.st0{fill:#B5BF94;}
	.st1{fill:#C9DDAC;}
	.st2{fill:#C4F3FF;}
	.st3{fill:#FFFFFF;}
	.st4{fill:#F43D61;}
	.st5{fill:#F72D97;}
</style>
<g>
	<path class="st0" d="M65,0L29.7,63.5L65,126.9l1.3-0.4c16.1-5.6,29.9-15.8,40-29.6c10.3-14,15.7-30.6,15.7-47.9V15.9L65,0z"/>
	<path class="st1" d="M8.1,15.9V49c0,17.3,5.4,33.9,15.7,47.9c10,13.7,23.9,24,40,29.6l1.3,0.4V0L8.1,15.9z"/>
	<path class="st2" d="M106.6,54.2c0.1-1.7,0.2-3.4,0.2-5.2V27.2L65,15.5L37.3,54.2L106.6,54.2z"/>
	<path class="st3" d="M65,15.5L23.2,27.2V49c0,1.7,0.1,3.5,0.2,5.2H65V15.5z"/>
	<path class="st4" d="M65,42.5L39.8,76.8L65,111.1l1.6-0.7c10.9-4.8,20.4-12.5,27.4-22.1c7.4-10.1,11.7-21.8,12.6-34.1L65,42.5z"/>
	<path class="st5" d="M23.4,54.2c0.9,12.3,5.3,24,12.6,34.1c7,9.6,16.5,17.3,27.4,22.1l1.6,0.7V42.5L23.4,54.2z"/>
</g>
</svg>
