<?xml version="1.0" encoding="utf-8"?>
<!-- Generator: Adobe Illustrator 24.0.1, SVG Export Plug-In . SVG Version: 6.00 Build 0)  -->
<svg version="1.1" id="Layer_1" xmlns="http://www.w3.org/2000/svg" xmlns:xlink="http://www.w3.org/1999/xlink" x="0px" y="0px"
	 viewBox="0 0 126.9 126.9" style="enable-background:new 0 0 126.9 126.9;" xml:space="preserve">
<style type="text/css">
	.st0{fill:#5050E5;}
</style>
<g>
	<path class="st0" d="M77.1,27.6c-7.7,1.2-12.3-7.8-20.7-5.3c-11.8,3.5-20.6,12.8-18.8,23c3.1,17.6,10,24.2,24.7,26.1
		c5.2,0.7,6.1-2.1,4.2-6c-1.5-3.1-2.2-6,1.3-7.4c1.8-0.7,5.1,0,6.7,1.3c18.9,15.3,39.3,29.1,52.1,52.9c-27.3,0-53.6,2.4-79.3-0.7
		C25.2,108.8,10,92.8,4.7,70.6C-0.1,50,4.9,31.7,22.9,18C40.3,4.7,69.1,9.2,77.1,27.6z"/>
</g>
</svg>
