<?xml version="1.0" encoding="utf-8"?>
<!-- Generator: Adobe Illustrator 24.0.1, SVG Export Plug-In . SVG Version: 6.00 Build 0)  -->
<svg version="1.1" id="Layer_1" xmlns="http://www.w3.org/2000/svg" xmlns:xlink="http://www.w3.org/1999/xlink" x="0px" y="0px"
	 viewBox="0 0 126.9 126.9" style="enable-background:new 0 0 126.9 126.9;" xml:space="preserve">
<style type="text/css">
	.st0{fill:#FFCC33;}
</style>
<g>
	<path class="st0" d="M39.2,123.1c-1.3-16.3,10.8-29.5,12.7-46.3c-9.8-0.7-19.4-1.4-28.9-2.1c-0.5-1.2-1-2.3-1.5-3.5
		c20-22.8,40-45.6,60-68.4c1.4,0.6,2.8,1.2,4.2,1.9C86.5,21,74.5,34.6,73,51.1c9.6,0.6,19,1.2,28.4,1.8c0.7,1.2,1.4,2.4,2.1,3.7
		C83.3,79.4,63.2,102.3,43,125.2C41.7,124.5,40.5,123.8,39.2,123.1z"/>
</g>
</svg>
