<?xml version="1.0" encoding="utf-8"?>
<!-- Generator: Adobe Illustrator 24.0.1, SVG Export Plug-In . SVG Version: 6.00 Build 0)  -->
<svg version="1.1" id="Layer_1" xmlns="http://www.w3.org/2000/svg" xmlns:xlink="http://www.w3.org/1999/xlink" x="0px" y="0px"
	 viewBox="0 0 126.9 126.9" style="enable-background:new 0 0 126.9 126.9;" xml:space="preserve">
<style type="text/css">
	.st0{fill:#E27DD1;}
	.st1{fill:#E17DD0;}
</style>
<g>
	<path class="st0" d="M109.5,32.5c26.7,35.6,1.9,84.9-35.4,89.9c-10.8,1.5-11.4-2.4-9.5-10.2C68.3,98,77.4,87.2,88.5,78
		c11.9-9.8,21.2-20.7,18.8-37.7C106.9,38.1,108.5,35.7,109.5,32.5z"/>
	<path class="st0" d="M2.6,67.9C2.3,55.6,5,46,9.9,37c0.9-1.7,1.9-4,4.3-3.3c2.1,0.6,2.9,2.6,2.4,4.9c-4,21.8,9.4,34.8,24.1,46.7
		c9.1,7.4,15.2,16.5,18,27.8c2,8.1-1.5,11.4-9.8,9.8C21.9,117.9,2.5,94.1,2.6,67.9z"/>
	<path class="st1" d="M27.1,30.4c3.2,0,4.8-0.3,6.3,0c20.5,4.5,21.7,3.9,24.5-16.1C58.3,11,56.7,7.7,62,8c4,0.2,4.3,2.9,4.4,6
		c0.1,3.3-0.3,6.6,0.4,9.8c1.7,7.2,4,13.8,13.8,8.1c3.8-2.2,9.4-4.6,12,0.1c3.1,5.5-3.1,7.6-6.8,9.4C73,47.5,65.8,57,65.2,71.5
		c-0.1,2.6,0.8,7.7-4.4,6.8c-3.2-0.6-2.4-4-2.7-6.9c-1.1-11.1-4.4-20.9-15.5-26.9C37,41.5,29.7,39.4,27.1,30.4z"/>
</g>
</svg>
