<?xml version="1.0" encoding="utf-8"?>
<!-- Generator: Adobe Illustrator 24.0.1, SVG Export Plug-In . SVG Version: 6.00 Build 0)  -->
<svg version="1.1" id="Layer_1" xmlns="http://www.w3.org/2000/svg" xmlns:xlink="http://www.w3.org/1999/xlink" x="0px" y="0px"
	 viewBox="0 0 126.9 126.9" style="enable-background:new 0 0 126.9 126.9;" xml:space="preserve">
<style type="text/css">
	.st0{fill:#B24A36;}
</style>
<g>
	<path class="st0" d="M94.9,66.2C86.2,81.7,81,83.5,67.2,74.4c-3.3-2.2-3.9-1.6-6.7,0.4c-12.4,8.5-19,6.4-27.2-8.6
		c-4.3,8-11,12.7-19.3,9.7C5.6,72.8,2.5,64.9,2.5,56c0-7.3,0.1-14.6-0.1-21.9c-0.1-5.6,2.1-10,6-14c8-8.3,19,5.9,26.2-3.4
		c8.3-10.7,17.1-10.8,27.1-3.1c2.8,2.1,4.2-0.2,6.2-1.4c9.4-5.7,18.9-6.2,24.7,4.2c3.7,6.6,6.5,2.6,10.3,1.7
		c11.6-2.7,20.6,0.3,21.9,13.5c0.9,9.6,1.1,19.6-0.6,29c-1.1,6.3-2.3,14.6-12,15.8C103.7,77.3,98.6,73.2,94.9,66.2z"/>
	<path class="st0" d="M48.6,85c6.8,0,13.7-0.6,20.4,0.2c5.1,0.6,13.1-4.1,15,3.3c2.1,8.4,0,18-7.8,23.1c-20.6,13.3-44,9.5-66.1,7.3
		c-11-1.1-7.3-14-7.5-22.3c-0.2-9.3,7.8-10.7,13.9-11.2C27.1,84.2,37.9,85,48.6,85z"/>
</g>
</svg>
