<?xml version="1.0" encoding="utf-8"?>
<!-- Generator: Adobe Illustrator 24.0.1, SVG Export Plug-In . SVG Version: 6.00 Build 0)  -->
<svg version="1.1" id="Layer_1" xmlns="http://www.w3.org/2000/svg" xmlns:xlink="http://www.w3.org/1999/xlink" x="0px" y="0px"
	 viewBox="0 0 126.9 126.9" style="enable-background:new 0 0 126.9 126.9;" xml:space="preserve">
<style type="text/css">
	.st0{fill:#F26130;}
</style>
<g>
	<path class="st0" d="M81.2,125.9c3.7-6.5,7.5-13.1,12-20.9c-7.8,0.8-13.5,1.5-21.3,2.3c4.3-17.9,3.8-33.6-9.9-47.9
		c-10.4,22.2-31.5,40-14,66.8c-15.1-0.3-33.9-22.2-35.1-38.3c-1.5-20.6,4.7-37.5,20.4-51c4.5-3.9,9.5-8,12.5-13
		c4-6.8,6.4-14.6,9.8-22.8c27.1,2.9,49.2,38.2,39.2,77.6c6.3,0.6,12.4,1.3,18.3,1.9C117.7,100,98.6,126.8,81.2,125.9z"/>
</g>
</svg>
