<?xml version="1.0" encoding="utf-8"?>
<!-- Generator: Adobe Illustrator 24.0.1, SVG Export Plug-In . SVG Version: 6.00 Build 0)  -->
<svg version="1.1" id="Layer_1" xmlns="http://www.w3.org/2000/svg" xmlns:xlink="http://www.w3.org/1999/xlink" x="0px" y="0px"
	 viewBox="0 0 126.9 126.9" style="enable-background:new 0 0 126.9 126.9;" xml:space="preserve">
<style type="text/css">
	.st0{fill:#7D86E5;}
</style>
<g>
	<path class="st0" d="M62.5,62.5c-18,13.6-30.1,31.9-41.7,50.6c-2.4,3.9-4.8,11.3-9.2,9c-5.5-2.8,0.2-8.5,2.4-12
		c4.2-6.6,4.5-12.7,2.1-20c-3.2-9.6,6.6-36.1,14.8-42.2c2.2-1.7,4.2-2.4,5.5,1c1.2,3.3,2.3,6.6,3.7,10.6c5.3-8.1,5.2-17.8,9.1-26.1
		c8.4-18,23.6-24.9,41.2-28.2c14-2.6,30.2,9,25.2,27.6c-9.8,36.3-32.5,62-67,77c-2.8,1.2-6.2,1.4-9.3,1.4c-2.5,0-5.9,1.5-7.4-2.1
		c-1.3-3.1,1.1-5.1,2.7-7.4C43.9,88.7,53.2,75.6,62.5,62.5z"/>
</g>
</svg>
