<?xml version="1.0" encoding="utf-8"?>
<!-- Generator: Adobe Illustrator 24.0.1, SVG Export Plug-In . SVG Version: 6.00 Build 0)  -->
<svg version="1.1" id="Layer_1" xmlns="http://www.w3.org/2000/svg" xmlns:xlink="http://www.w3.org/1999/xlink" x="0px" y="0px"
	 viewBox="0 0 126.9 126.9" style="enable-background:new 0 0 126.9 126.9;" xml:space="preserve">
<style type="text/css">
	.st0{fill:#6652CB;}
</style>
<g>
	<path class="st0" d="M64.1,2.5C76.1,4.2,91,4,101.5,17.5c8.4,10.7,9.2,19.4,0.8,30.5c-6.3,8.3-11.8,15,1.2,22.7
		c6.7,4,6.1,11.4,0,17.1c-6.4,6-14.5,8.8-22,12.6c-8.7,4.4-18.2,8.3-16.4,21.8c0.7,5.2-3.3,3.5-5.6,2.5c-15.3-6.3-16.8-21-8.7-32.9
		c2.3-3.4,5.7-6.1,8.5-9.2c8.2-9.2,7.4-12.9-3.9-17.7c-9.7-4-20-6.5-27.8-14.5C14.6,37.4,16,22.3,31.2,11.9
		C40.4,5.7,51,2.3,64.1,2.5z"/>
</g>
</svg>
