<?xml version="1.0" encoding="utf-8"?>
<!-- Generator: Adobe Illustrator 24.0.1, SVG Export Plug-In . SVG Version: 6.00 Build 0)  -->
<svg version="1.1" id="Layer_1" xmlns="http://www.w3.org/2000/svg" xmlns:xlink="http://www.w3.org/1999/xlink" x="0px" y="0px"
	 viewBox="0 0 126.9 126.9" style="enable-background:new 0 0 126.9 126.9;" xml:space="preserve">
<style type="text/css">
	.st0{fill:#BDA056;}
	.st1{fill:#BC9F55;}
	.st2{fill:#BA9E55;}
</style>
<g>
	<path class="st0" d="M64,9.1c15.8,0,31.6-0.1,47.3,0.1c4.5,0,11.2-1.6,11.4,5.2c0.1,5.6-3.8,10.3-10.2,12.1
		c-20,5.6-39.7,12.1-59.7,17.3C24,51.4,23.9,51,9.9,24.2C2.1,9.1,2.1,9.1,19.3,9.1C34.2,9.1,49.1,9.1,64,9.1z"/>
	<path class="st1" d="M98.6,41.7c5.3-1.4,8,1.6,6.3,6.3c-3.2,8.9-5.5,19.2-16.2,22.5c-13.3,4.1-26.9,7.1-40,11.7
		c-4.9,1.7-7.3,0.9-9.6-3c-1.8-3.1-3.5-6.1-5.2-9.2c-8.1-15-7.4-16.7,8.5-19.3C61.2,47.6,79.9,44.7,98.6,41.7z"/>
	<path class="st2" d="M72.5,84c13.5,0.2,14.1,1,7.8,13.2c-3.2,6.2-6.8,12.2-9.9,18.5c-4.2,8.7-8.2,8.1-12.5,0.1
		c-0.6-1.2-1.7-2.1-2.2-3.3c-3.1-7.5-12.2-16.4-8.6-21.8C51.6,83.9,63.3,84,72.5,84z"/>
</g>
</svg>
