<?xml version="1.0" encoding="utf-8"?>
<!-- Generator: Adobe Illustrator 24.0.1, SVG Export Plug-In . SVG Version: 6.00 Build 0)  -->
<svg version="1.1" id="Layer_1" xmlns="http://www.w3.org/2000/svg" xmlns:xlink="http://www.w3.org/1999/xlink" x="0px" y="0px"
	 viewBox="0 0 126.9 126.9" style="enable-background:new 0 0 126.9 126.9;" xml:space="preserve">
<style type="text/css">
	.st0{fill:#66CCCC;}
</style>
<g>
	<path class="st0" d="M69.6,109.4c-3.2,5.2,1.3,14.7-5.6,15c-8.7,0.3-3.4-9.8-6.5-14.5c-2.2-1.2-4,0.1-5.8,1
		c-2.8,1.4-6.4,2.8-8.2-0.2c-2.4-4,1.2-6.2,4.2-8.1c5.3-3.4,12.4-5.6,10.2-14.2c-1.1-4.2,1.8-12.3-3.8-11.9
		C47.9,77,39.5,79.3,37.3,88c-0.6,2.5-0.2,5.2-0.4,7.8c-0.2,3.4,0.1,7.8-4.5,8.1c-4.8,0.3-4.5-4.2-5-7.6c-0.2-1.7-0.6-3.3-0.9-4.9
		c-1.3,0-2.1-0.1-2.9,0c-4.7,0.6-9.4,8.5-13.5,2.4c-3.7-5.7,4-7.3,7.3-9.9c5.1-4,1.2-5.7-1.6-7.6c-2.6-1.8-5.6-3.9-3.8-7.2
		c1.8-3.2,5.7-2.5,8-0.5c10.2,8.7,18.2,2.5,26.4-3.5c2.2-1.6,2.2-3.6,0-5.2c-8.1-6-16.2-12.1-26.4-3.5c-2.3,2-6.2,2.7-8-0.5
		c-1.8-3.3,1.1-5.4,3.8-7.1c4.1-2.5,5.8-4.9,0.4-8.3c-3.2-2.1-9.7-3.9-6.4-9.3c3.3-5.3,7.5,0.4,11.2,1.4c1.6,0.4,3.2,1,5.2,1.6
		c0.4-2.1,0.8-3.8,1.1-5.4c0.5-3.4,0.2-7.9,5-7.6c4.6,0.3,4.4,4.7,4.4,8.1C37,35.9,36.1,43,44.8,45c4,1,8.6,8.2,11.6,1.9
		c2.6-5.5,4.4-13.3-1.1-19.5c-0.8-0.9-2.3-1.3-3.2-2.2c-3.3-3.3-12-4.1-8.4-10.7c2.9-5.2,8.4,1.4,12.9,1.2c4.8-4-1.8-15.5,7.4-15
		c6.9,0.3,2.4,9.8,5.3,14.5c2.2,1.2,3.9-0.1,5.8-1c2.8-1.4,6.4-2.7,8.2,0.2c2.4,4-1.3,6.1-4.3,8.1c-5.3,3.4-12.4,5.6-10.2,14.3
		c1.1,4.2-1.8,12.3,3.8,11.8c6.3-0.5,14.6-2.8,16.8-11.5c0.2-0.8-0.1-1.8,0.1-2.6c1-4.7-2.3-12.5,4.7-13c7.4-0.5,3.1,8.6,6.3,12.2
		c0.9,0,1.8,0.1,2.6,0c4.7-0.6,9.4-8.5,13.4-2.3c3.7,5.6-4.1,7.3-7.4,9.9c-5.1,4-1.1,5.7,1.6,7.6c2.6,1.8,5.6,3.8,3.7,7.2
		c-1.8,3.2-5.7,2.4-8,0.5C96.3,47.8,88.2,54,80.1,60c-2.2,1.6-2.2,3.6,0,5.2c8.1,6,16.2,12.2,26.4,3.5c2.3-2,6.2-2.7,8,0.5
		c1.8,3.3-1.1,5.4-3.8,7.1c-4.1,2.5-5.9,4.9-0.4,8.3c3.2,2.1,9.7,3.9,6.4,9.3c-3.3,5.3-7.5-0.4-11.2-1.4c-1.6-0.4-3.2-1-5.3-1.6
		c-0.4,2.6-0.7,4.7-1,6.8c-0.5,3.1-0.9,6.6-4.9,6.3c-3.9-0.3-4.1-3.8-4.4-6.9c-0.5-6.6,1.6-14.6-7.9-16.9c-4-1-8.6-8.2-11.6-1.9
		c-2.6,5.5-4.4,13.3,1.1,19.5c0.8,0.9,2.3,1.3,3.2,2.2c3.3,3.3,12,4.1,8.4,10.7C80.2,115.9,74.7,109.2,69.6,109.4z"/>
</g>
</svg>
