<?xml version="1.0" encoding="utf-8"?>
<!-- Generator: Adobe Illustrator 24.0.1, SVG Export Plug-In . SVG Version: 6.00 Build 0)  -->
<svg version="1.1" id="Layer_1" xmlns="http://www.w3.org/2000/svg" xmlns:xlink="http://www.w3.org/1999/xlink" x="0px" y="0px"
	 viewBox="0 0 126.9 126.9" style="enable-background:new 0 0 126.9 126.9;" xml:space="preserve">
<style type="text/css">
	.st0{fill:#A69974;}
</style>
<g>
	<path class="st0" d="M9.4,92.9c5.7-6.3,11-13.2,17.3-18.9c7.4-6.7,8.4-12.1,0.3-19.2c-6.4-5.6-11.7-12.6-17.5-18.9
		c0.5-1.1,1-2.1,1.5-3.2c12.5,2.3,24.9,4.6,38,7.1c4.3-12.8,8.2-24.6,12.1-36.4c1.1-0.1,2.2-0.1,3.3-0.2c2.7,8,6.5,15.8,7.9,24
		c2.1,12.2,8.4,13.4,18.6,10.3c7.7-2.4,15.9-3.5,23.8-5.1c0.6,1,1.1,2.1,1.7,3.1c-8.2,9.3-16.4,18.6-25.5,28.9
		c8.6,9.7,16.9,19,25.2,28.4c-0.4,1-0.8,2-1.1,3c-6.9-1.1-13.9-1.9-20.7-3.4c-17.8-4-17.7-4.1-23.1,13.4c-2,6.5-4.2,13-9.7,19.7
		c-2.7-8-6.4-15.8-7.8-23.9c-2-12.2-8.4-13.4-18.6-10.4c-7.7,2.3-15.8,3.5-23.7,5.2C10.6,95,10,93.9,9.4,92.9z"/>
</g>
</svg>
