<?xml version="1.0" encoding="utf-8"?>
<!-- Generator: Adobe Illustrator 24.0.1, SVG Export Plug-In . SVG Version: 6.00 Build 0)  -->
<svg version="1.1" id="Layer_1" xmlns="http://www.w3.org/2000/svg" xmlns:xlink="http://www.w3.org/1999/xlink" x="0px" y="0px"
	 viewBox="0 0 126.9 126.9" style="enable-background:new 0 0 126.9 126.9;" xml:space="preserve">
<style type="text/css">
	.st0{fill:#BE43A9;}
</style>
<path class="st0" d="M109.9,21.8C98.7,9.5,84.5,6.4,69.8,4.9c-25.7-2.7-50.8,6.4-59.2,27.4C2.9,51.6,2.5,80.5,25.9,97.9
	c3.8,2.9,5.2,5.5,4.5,9.5c-1.3,8.6,3.4,12.3,10.5,15.5c7.6,3.6,15.4,1.7,21.8,2.4c5.5,0,9.9,0.1,14.2,0c14.7-0.5,20.2-5.5,21.7-20.3
	c0.4-4.3,2.4-6.4,6-9C127.3,79.4,128.9,42.6,109.9,21.8z M42.9,88.4C36,88.7,25.5,79.2,25.7,72c0.3-7.8,5.1-12.9,12.5-14.3
	c6-1.2,17.4,10.7,18.1,17.7C56.9,81.1,49.6,88.2,42.9,88.4z M84.8,88.5c-9.9,0.6-10.9-6.8-11.8-13.4c-0.8-5.9,11.8-17.5,17.9-17.6
	c7,1.4,11.5,5.9,12.5,12.7C104.3,76.9,92.1,88,84.8,88.5z"/>
</svg>
