<?xml version="1.0" encoding="utf-8"?>
<!-- Generator: Adobe Illustrator 24.0.1, SVG Export Plug-In . SVG Version: 6.00 Build 0)  -->
<svg version="1.1" id="Layer_1" xmlns="http://www.w3.org/2000/svg" xmlns:xlink="http://www.w3.org/1999/xlink" x="0px" y="0px"
	 viewBox="0 0 126.9 126.9" style="enable-background:new 0 0 126.9 126.9;" xml:space="preserve">
<style type="text/css">
	.st0{fill:#FE4D78;}
</style>
<path class="st0" d="M123.4,57.2C98.9,17.6,52,8.6,16,38.9C2.7,50-2.1,63.2,3.9,71.9c14.5,20.7,32.9,34.8,61.3,32.8
	c17.8,2.7,33.7-5.7,46-18.4C118.3,79,132,71,123.4,57.2z M89.4,65c-0.7,10.3-15.9,24-26.6,24c-12.5,0-24.3-11.1-24.8-23.5
	c-0.2-3.7,0.4-4.6,5.1-3.8c18.9,3.2,21.5,0.2,18.5-18.1c-0.5-3.1-2.2-7,4.6-5.5C78.8,40.8,90.2,53.2,89.4,65z"/>
</svg>
