<?xml version="1.0" encoding="utf-8"?>
<!-- Generator: Adobe Illustrator 24.0.1, SVG Export Plug-In . SVG Version: 6.00 Build 0)  -->
<svg version="1.1" id="Layer_1" xmlns="http://www.w3.org/2000/svg" xmlns:xlink="http://www.w3.org/1999/xlink" x="0px" y="0px"
	 viewBox="0 0 126.9 126.9" style="enable-background:new 0 0 126.9 126.9;" xml:space="preserve">
<style type="text/css">
	.st0{fill:#A58442;}
</style>
<g>
	<path class="st0" d="M28.3,102.8c-5.5,0-11.1-0.5-16.5,0.1c-9.5,1-12.1-1.6-7.6-10.9c9.7-19.9,19-40,27.9-60.3
		c3.7-8.4,7.8-9.9,15.3-4.7C63.5,38,71,61.1,64.1,79.6C55.3,102.8,55.3,102.8,28.3,102.8z"/>
	<path class="st0" d="M92.8,102.8c-7.1,0-14.2-0.2-21.2,0.1c-7.1,0.3-10.8-0.9-6.4-9.1c6.4-11.9,12.2-24.2,18.2-36.4
		c2.6-5.3,4.9-6.9,11.3-3.1c17.3,10.4,20.3,29.5,29.1,44.9c2.3,4-2.8,3.4-5,3.5C110.1,102.9,101.5,102.8,92.8,102.8z"/>
</g>
</svg>
