<?xml version="1.0" encoding="utf-8"?>
<!-- Generator: Adobe Illustrator 24.0.1, SVG Export Plug-In . SVG Version: 6.00 Build 0)  -->
<svg version="1.1" id="Layer_1" xmlns="http://www.w3.org/2000/svg" xmlns:xlink="http://www.w3.org/1999/xlink" x="0px" y="0px"
	 viewBox="0 0 126.9 126.9" style="enable-background:new 0 0 126.9 126.9;" xml:space="preserve">
<style type="text/css">
	.st0{fill:#1D3EFF;}
	.st1{fill:#0B40D3;}
	.st2{fill:#33363A;}
	.st3{fill:#FFD00B;}
	.st4{fill:#FFBE08;}
</style>
<g>
	<g>
		<path class="st0" d="M88.6,1.5H49.2c-16.3,0-29.6,13.2-29.6,29.6V46l-6.4,6.4c-5.9,5.9-5.9,15.5,0,21.4l13.4,13.4
			c0.1,0.1,0.2,0.2,0.3,0.3c3.8,4.3,8.8,7.5,14.5,9.1c-0.4,0.7-0.7,1.5-0.7,2.4v21.8c0,2.6,2.1,4.7,4.7,4.7h49.2
			c2.6,0,4.7-2.1,4.7-4.7V98.9c0-1.2-0.4-2.2-1.1-3c11.6-4,19.9-15,19.9-27.9V31.1C118.1,14.7,104.9,1.5,88.6,1.5z"/>
	</g>
	<g>
		<path class="st1" d="M88.6,13.2H49.2c-16.3,0-29.6,13.2-29.6,29.6V46v11.7L13.2,64c-1.4,1.4-2.5,3.1-3.3,4.9
			c0.7,1.8,1.8,3.4,3.3,4.9l13.4,13.4c0.1,0.1,0.2,0.2,0.3,0.3c3.8,4.3,8.8,7.5,14.5,9.1c-0.4,0.7-0.7,1.5-0.7,2.4v9
			c0.2,0.1,0.5,0.2,0.7,0.2c-0.4,0.7-0.7,1.5-0.7,2.4v10.1c0,2.6,2.1,4.7,4.7,4.7h49.2c2.6,0,4.7-2.1,4.7-4.7v-10.1
			c0-1.2-0.4-2.2-1.1-3c0.4-0.1,0.7-0.3,1.1-0.4v-8.2c0-1.2-0.4-2.2-1.1-3c11.6-4,19.9-15,19.9-27.9V42.7
			C118.1,26.4,104.9,13.2,88.6,13.2z"/>
	</g>
	<g>
		<path class="st2" d="M73.4,97.3h-2.8c-0.8,0-1.5-0.7-1.5-1.5s0.7-1.5,1.5-1.5h2.8c0.8,0,1.5,0.7,1.5,1.5S74.2,97.3,73.4,97.3z"/>
	</g>
	<g>
		<path class="st2" d="M63.5,97.3h-2.8c-0.8,0-1.5-0.7-1.5-1.5s0.7-1.5,1.5-1.5h2.8c0.8,0,1.5,0.7,1.5,1.5S64.3,97.3,63.5,97.3z"/>
	</g>
	<g>
		<path class="st2" d="M53.5,97.3h-2.8c-0.8,0-1.5-0.7-1.5-1.5s0.7-1.5,1.5-1.5h2.8c0.8,0,1.5,0.7,1.5,1.5S54.4,97.3,53.5,97.3z"/>
	</g>
	<g>
		<g>
			<path class="st3" d="M90.8,43.1c-0.3-1-1.2-1.7-2.2-1.9l-10.7-1.6L73,30c-0.5-0.9-1.4-1.5-2.5-1.5s-2,0.6-2.5,1.5l-4.8,9.7
				l-10.7,1.6c-1,0.1-1.9,0.9-2.2,1.9c-0.3,1-0.1,2.1,0.7,2.8l7.7,7.5L57,64.2c-0.2,1,0.2,2.1,1.1,2.7c0.8,0.6,2,0.7,2.9,0.2l9.6-5
				l9.6,5c0.4,0.2,0.8,0.3,1.3,0.3c0.6,0,1.1-0.2,1.6-0.5c0.8-0.6,1.3-1.7,1.1-2.7l-1.8-10.7l7.7-7.5C90.8,45.2,91.1,44.1,90.8,43.1
				z"/>
		</g>
		<g>
			<path class="st4" d="M82.3,53.5l6.3-6.1c0,0,0,0,0,0l-10.7-1.6l-4.8-9.7c-0.5-0.9-1.4-1.5-2.5-1.5s-2,0.6-2.5,1.5l-4.8,9.7
				l-10.7,1.6c0,0,0,0,0,0l6.3,6.1L58,58.8l0.9,0.9l-1.2,6.8c0.1,0.1,0.3,0.3,0.4,0.4c0.8,0.6,2,0.7,2.9,0.2l9.6-5l9.6,5
				c0.4,0.2,0.8,0.3,1.3,0.3c0.6,0,1.1-0.2,1.6-0.5c0.2-0.1,0.3-0.3,0.4-0.4l-1.2-6.8l0.9-0.9L82.3,53.5z"/>
		</g>
		<g>
			<path class="st2" d="M59.7,68.9c-0.9,0-1.7-0.3-2.5-0.8c-1.3-1-2-2.6-1.7-4.2l1.7-9.9l-7.2-7c-1.2-1.1-1.6-2.8-1.1-4.4
				c0.5-1.6,1.8-2.7,3.4-2.9l9.9-1.4l4.4-9c0.7-1.4,2.2-2.4,3.8-2.4c1.6,0,3.1,0.9,3.8,2.4l4.4,9l9.9,1.4c1.6,0.2,2.9,1.3,3.4,2.9
				l0,0c0.5,1.5,0.1,3.2-1.1,4.4l-7.2,7l1.7,9.9c0.3,1.6-0.4,3.2-1.7,4.2c-1.3,0.9-3.1,1.1-4.5,0.3l-8.9-4.7l-8.9,4.7
				C61.1,68.7,60.4,68.9,59.7,68.9z M70.6,30c-0.5,0-0.9,0.3-1.1,0.7l-4.8,9.7c-0.2,0.4-0.6,0.7-1.1,0.8l-10.7,1.6
				c-0.5,0.1-0.9,0.4-1,0.8c-0.1,0.5,0,0.9,0.3,1.3l7.7,7.5c0.4,0.3,0.5,0.8,0.4,1.3l-1.8,10.7c-0.1,0.5,0.1,0.9,0.5,1.2
				c0.4,0.3,0.9,0.3,1.3,0.1l9.6-5c0.4-0.2,1-0.2,1.4,0l9.6,5c0.4,0.2,0.9,0.2,1.3-0.1c0.4-0.3,0.6-0.7,0.5-1.2l-1.8-10.7
				c-0.1-0.5,0.1-1,0.4-1.3l7.7-7.5c0.3-0.3,0.5-0.8,0.3-1.3c-0.1-0.5-0.5-0.8-1-0.8l-10.7-1.6c-0.5-0.1-0.9-0.4-1.1-0.8l-4.8-9.7
				C71.5,30.3,71.1,30,70.6,30z"/>
		</g>
	</g>
	<path class="st2" d="M88.6,0H49.2C32,0,18.1,13.9,18.1,31.1v12.5v1.8l-5.9,5.9C9,54.4,7.3,58.6,7.3,63.1c0,4.4,1.7,8.6,4.9,11.8
		l13.4,13.4c0.1,0.1,0.2,0.2,0.3,0.2l0.1,0c3.7,4.2,8.3,7.3,13.6,9c-0.1,0.5-0.2,1-0.2,1.4v21.8c0,3.4,2.8,6.2,6.2,6.2h49.2
		c3.4,0,6.2-2.8,6.2-6.2V98.9c0-0.8-0.1-1.5-0.4-2.2c11.5-4.8,19.2-16.1,19.2-28.7V31.1C119.6,13.9,105.7,0,88.6,0z M94.7,123.9
		H45.5c-1.8,0-3.2-1.4-3.2-3.2v-4.3h55.6v4.3C97.9,122.5,96.5,123.9,94.7,123.9z M116.6,68c0,11.7-7.3,22.2-18.2,26.3
		c0,0-0.1,0-0.1,0H82c-0.8,0-1.5,0.7-1.5,1.5s0.7,1.5,1.5,1.5h15.4c0.3,0.4,0.5,1,0.5,1.7v14.5H42.3V98.9c0-0.6,0.2-1.1,0.5-1.6
		c0.2-0.4,0.3-0.9,0.1-1.3s-0.5-0.8-1-0.9c-5.3-1.5-10.1-4.4-13.8-8.6c0,0-0.1-0.1-0.1-0.1c-0.1-0.1-0.1-0.1-0.2-0.2
		c0,0-0.1-0.1-0.1-0.1L14.3,72.7c-2.6-2.6-4-6-4-9.6c0-3.6,1.4-7.1,4-9.6l3.8-3.8v8.9c0,0,0,0.1,0,0.1l-0.6,0.6
		c-0.6,0.6-0.6,1.5,0,2.1c0.3,0.3,0.7,0.4,1.1,0.4s0.8-0.1,1.1-0.4l3.8-3.8c0.6-0.6,0.6-1.5,0-2.1s-1.5-0.6-2.1,0l-0.2,0.2V46v-2.4
		V31.1C21.1,15.6,33.7,3,49.2,3h39.4c15.5,0,28.1,12.6,28.1,28.1V68z"/>
</g>
</svg>
