<?xml version="1.0" encoding="utf-8"?>
<!-- Generator: Adobe Illustrator 24.0.1, SVG Export Plug-In . SVG Version: 6.00 Build 0)  -->
<svg version="1.1" id="Layer_1" xmlns="http://www.w3.org/2000/svg" xmlns:xlink="http://www.w3.org/1999/xlink" x="0px" y="0px"
	 viewBox="0 0 126.9 126.9" style="enable-background:new 0 0 126.9 126.9;" xml:space="preserve">
<style type="text/css">
	.st0{fill:#A2A9CA;}
	.st1{fill:#A1A8C9;}
</style>
<g>
	<path class="st0" d="M62.9,40.5c6.7,0,13.4-0.1,20.1,0c8,0.1,11.3,2.9,6.4,10.9c-6.1,10-11.7,20.4-18,30.2
		c-5.5,8.7-10.3,8.7-15.6,0.3c-6.5-10.2-12.4-20.8-18.5-31.3c-3.8-6.5-2.9-10.4,5.7-10.2C49.5,40.6,56.2,40.5,62.9,40.5z"/>
	<path class="st1" d="M48.3,25.3C25.5,27.8,19.5,38.1,26.6,61c-7.5,1.2-14.6,2.4-19.5-5.5C2.3,47.6,4.8,41,10.4,34.6
		c2.2-2.6,3.4-6.1,5-9.2c3.4-6.4,5.8-13,15.2-13.5C40.4,11.4,44.2,17.1,48.3,25.3z"/>
	<path class="st1" d="M78.5,25c11.7-18,23.7-17.3,33.3,0.8c2.9,5.4,6,10.7,9.1,16c4.5,8-0.4,13.5-5.6,18.4
		c-3.3,3.1-8.5,2.5-12.2,0.6c-3.9-2-0.6-5.4,0.2-8.2C107,39.1,97.3,27.9,78.5,25z"/>
	<path class="st1" d="M40.9,88c8.1,5.9,12,17.5,24.9,14.2c5.3-1.4,10.3-0.1,12.5-7.6c1.7-5.7,6.1-6.3,10-0.2
		c3.5,5.5,1.7,10.2-0.3,15.4c-2.1,5.4-5.8,6.6-11.1,6.4c-7.4-0.4-14.9-0.1-22.4-0.1c-15.8,0-21-8-15-23C40.1,91.6,40.3,90.1,40.9,88
		z"/>
</g>
</svg>
